<svg version="1.1" id="Layer_1" xmlns="http://www.w3.org/2000/svg" xmlns:xlink="http://www.w3.org/1999/xlink" x="0px" y="0px"
	 width="100%" viewBox="0 0 1024 1024" enable-background="new 0 0 1024 1024" xml:space="preserve">
<path fill="#000000" opacity="1.000000" stroke="none" 
	d="
M636.163818,492.865417 
	C644.572510,506.491150 653.831360,519.249268 660.341187,533.512390 
	C674.179993,563.833130 657.783386,599.244751 625.945190,608.987610 
	C618.849609,611.158997 611.663452,612.103455 604.298340,612.108521 
	C562.966248,612.136841 521.632996,612.353210 480.302704,612.094177 
	C465.860504,612.003662 455.221985,618.168335 447.654175,629.802673 
	C431.398926,654.792603 415.454102,679.984802 399.457306,705.141907 
	C397.677094,707.941528 396.116882,709.839355 392.145111,709.809998 
	C352.989899,709.519897 313.832642,709.506348 274.675964,709.422424 
	C272.343567,709.417419 270.010895,709.473022 267.678650,709.516235 
	C266.220032,709.543213 264.510101,710.201355 263.524902,708.677612 
	C262.322388,706.817749 264.110199,705.606140 264.943420,704.290833 
	C273.232819,691.205994 281.657349,678.205994 289.868622,665.072571 
	C305.411896,640.212036 320.839752,615.279236 336.316132,590.376892 
	C342.030975,581.181396 347.767639,571.999451 353.459167,562.789612 
	C365.486176,543.327637 381.328461,528.945679 404.470245,524.114929 
	C409.239990,523.119202 414.021118,522.771423 418.866333,522.773193 
	C459.031769,522.787964 499.197235,522.787231 539.362671,522.774048 
	C541.493103,522.773315 543.672729,523.073425 545.776733,522.245056 
	C546.358215,519.701782 544.819214,517.998901 543.709290,516.242615 
	C535.433472,503.147278 527.197449,490.024506 518.708679,477.067749 
	C516.571655,473.805908 516.456482,471.380737 518.662720,468.076172 
	C524.022339,460.048523 528.961365,451.739960 534.066772,443.542725 
	C537.149414,438.593262 538.557190,438.519196 541.650452,443.453369 
	C550.584717,457.704590 559.394470,472.033875 568.339355,486.278381 
	C582.335449,508.566803 596.402954,530.810303 610.437439,553.074646 
	C611.398865,554.599792 612.680115,555.986511 612.663086,558.054138 
	C610.945007,559.977356 608.633179,559.173340 606.599426,559.174744 
	C546.767822,559.215820 486.933014,559.549194 427.106476,558.995850 
	C408.152588,558.820557 394.735229,565.859985 384.884949,581.915771 
	C367.033417,611.013184 348.546631,639.720825 330.342590,668.602234 
	C329.654999,669.693054 329.149902,670.898926 328.640717,671.893127 
	C329.795380,673.748718 331.363708,673.626892 332.835419,673.515991 
	C345.485779,672.562805 358.156708,673.073364 370.812408,673.154053 
	C375.245789,673.182312 377.782043,671.612854 380.054962,667.960510 
	C392.550964,647.881104 405.236786,627.919556 417.893616,607.940430 
	C431.731934,586.096375 451.890167,575.802795 477.463531,575.752869 
	C517.962097,575.673889 558.460876,575.733521 598.959595,575.732239 
	C601.126160,575.732117 603.294434,575.763855 605.458923,575.691284 
	C624.121094,575.065918 632.983032,559.909180 623.701233,543.688232 
	C615.184143,528.803833 605.995911,514.300598 596.984253,499.702850 
	C584.914185,480.150757 572.746582,460.658875 560.589661,441.160583 
	C547.025024,419.404419 533.437256,397.662689 519.817566,375.940979 
	C518.788208,374.299377 517.860107,372.461243 515.515442,371.277283 
	C510.966858,375.820221 508.561432,381.733154 505.225647,386.970062 
	C487.247345,415.194458 469.505646,443.570374 451.405029,471.715698 
	C443.719879,483.665588 443.435425,483.451355 451.849579,494.856293 
	C453.891296,497.623749 456.547577,500.053131 457.385559,504.262909 
	C452.400299,505.439087 447.505096,504.805389 442.623444,504.665894 
	C427.478546,504.233063 412.318665,503.510620 397.644562,508.680695 
	C392.479248,510.500549 387.830627,513.345154 382.926575,516.011414 
	C381.867065,513.379761 383.569183,512.112854 384.449036,510.684601 
	C415.616425,460.092499 446.812408,409.517975 478.022552,358.952240 
	C489.479095,340.390686 500.982422,321.858032 512.461853,303.310608 
	C515.237061,298.826721 516.444641,298.797668 519.263855,303.359283 
	C536.946899,331.970490 554.609070,360.594635 572.268005,389.220703 
	C593.513184,423.660095 614.748352,458.105621 636.163818,492.865417 
z"/>
<path fill="#000000" opacity="1.000000" stroke="none" 
	d="
M720.391235,630.651550 
	C736.565979,656.582214 752.556885,682.198486 768.457336,707.670044 
	C766.258911,709.881836 764.328552,709.354919 762.585205,709.356567 
	C721.099731,709.395935 679.614075,709.354431 638.128967,709.476135 
	C634.730225,709.486145 633.091980,707.983643 631.482666,705.351807 
	C623.926025,692.994080 615.996887,680.860291 608.609436,668.404114 
	C601.184692,655.885071 590.558838,648.277588 576.382446,645.257141 
	C558.322876,641.409363 540.307617,637.353821 522.270569,633.400024 
	C521.321899,633.192078 520.262573,633.280151 519.691467,632.183350 
	C520.393555,630.160217 522.136963,630.822266 523.477966,630.821411 
	C556.632385,630.800476 589.786926,630.866333 622.941040,630.771851 
	C626.396973,630.762024 628.411804,632.063721 630.184143,634.896790 
	C637.249084,646.190491 644.567444,657.325623 651.642578,668.613098 
	C653.610718,671.752991 655.927124,673.153809 659.773071,673.074951 
	C671.930542,672.825745 684.095947,672.984009 696.257812,672.902710 
	C698.174988,672.889893 700.257568,673.445312 702.313599,671.772705 
	C700.683655,665.966797 696.629639,661.435608 693.536804,656.435608 
	C686.092224,644.400208 678.497742,632.451965 670.684753,620.653259 
	C668.004089,616.604980 668.379517,614.175903 672.312866,611.185791 
	C679.604126,605.643005 684.423645,597.999084 688.466553,589.866882 
	C689.184875,588.421936 689.317749,586.627319 691.628174,585.091858 
	C701.804382,599.791016 710.598816,615.331299 720.391235,630.651550 
z"/>
</svg>